<mxfile host="app.diagrams.net" modified="2023-12-08T05:06:26.179Z" agent="Mozilla/5.0 (Macintosh; Intel Mac OS X 10_15_7) AppleWebKit/537.36 (KHTML, like Gecko) Chrome/119.0.0.0 Safari/537.36" version="22.1.7" etag="OAK4X9_xii-jNwU4k_Bc" type="github">
  <diagram name="第 1 页" id="tuMrEDR-oL13li15cIT_">
    <mxGraphModel>
      <root>
        <mxCell id="0" />
        <mxCell id="1" parent="0" />
      </root>
    </mxGraphModel>
  </diagram>
</mxfile>
